<svg height="512pt" viewBox="-4 0 511 512" width="512pt" xmlns="http://www.w3.org/2000/svg"><path d="m103.679688 336.820312c-21.378907 9.699219-42.296876 31.148438-42.296876 78.023438 0 77.074219 97.144532 97.15625 97.144532 97.15625v-46.738281h150.507812v46.738281s97.144532-20.082031 97.144532-97.15625c0-46.875-20.917969-68.324219-42.296876-78.023438" fill="#f74866"/><path d="m80.429688 79.257812c-1.433594 0-2.847657.105469-4.226563.308594-6.566406-13.085937-20.097656-22.074218-35.738281-22.074218-22.070313 0-39.964844 17.894531-39.964844 39.964843 0 22.074219 17.894531 39.964844 39.964844 39.964844h39.964844c16.0625 0 29.085937-13.019531 29.085937-29.082031s-13.023437-29.082032-29.085937-29.082032zm0 0" fill="#e6e6e6"/><path d="m23.488281 97.457031c0-18.074219 12.003907-33.339843 28.46875-38.277343-3.640625-1.09375-7.496093-1.6875-11.492187-1.6875-22.070313 0-39.964844 17.894531-39.964844 39.964843 0 22.074219 17.894531 39.964844 39.964844 39.964844h22.988281c-22.070313 0-39.964844-17.890625-39.964844-39.964844zm0 0" fill="#ccc"/><path d="m474.304688 223.453125c-1.4375 0-2.847657.109375-4.230469.308594-6.5625-13.085938-20.09375-22.074219-35.734375-22.074219-22.074219 0-39.964844 17.894531-39.964844 39.964844 0 22.074218 17.890625 39.964844 39.964844 39.964844h39.964844c16.0625 0 29.082031-13.019532 29.082031-29.082032s-13.019531-29.082031-29.082031-29.082031zm0 0" fill="#e6e6e6"/><path d="m417.363281 241.652344c0-18.074219 12-33.339844 28.46875-38.277344-3.640625-1.09375-7.496093-1.6875-11.492187-1.6875-22.074219 0-39.964844 17.894531-39.964844 39.964844 0 22.074218 17.890625 39.964844 39.964844 39.964844h22.988281c-22.074219 0-39.964844-17.890626-39.964844-39.964844zm0 0" fill="#ccc"/><path d="m370.238281 271.308594c0 72.179687-22.65625 139.054687-61.203125 193.953125h-150.503906c-38.558594-54.898438-61.210938-121.773438-61.210938-193.953125 0-56.699219 13.96875-110.144532 38.660157-157.058594 23.679687-45.046875 57.25-84.082031 97.804687-114.25 40.550782 30.167969 74.113282 69.203125 97.789063 114.25 24.691406 46.914062 38.664062 100.359375 38.664062 157.058594zm0 0" fill="#f2f2f2"/><path d="m152.980469 271.308594c0 72.179687 13.417969 139.054687 36.25 193.953125h-30.699219c-38.558594-54.898438-61.210938-121.773438-61.210938-193.953125 0-111.125 53.65625-209.722656 136.464844-271.308594-49.027344 61.585938-80.804687 160.183594-80.804687 271.308594zm0 0" fill="#e6e6e6"/><path d="m331.574219 114.25h-195.59375c23.679687-45.046875 57.25-84.082031 97.804687-114.25 40.550782 30.167969 74.113282 69.203125 97.789063 114.25zm0 0" fill="#f74866"/><path d="m233.785156 0c-24.011718 30.167969-43.886718 69.203125-57.910156 114.25h-39.894531c23.679687-45.046875 57.25-84.082031 97.804687-114.25zm0 0" fill="#e2234c"/><path d="m342.964844 256c0 45.429688-27.738282 84.378906-67.195313 100.824219-12.917969 5.386719-27.109375 8.367187-41.984375 8.367187-5.539062 0-10.964844-.410156-16.285156-1.203125-9.648438-1.449219-18.890625-4.15625-27.546875-7.96875-38.484375-16.871093-65.359375-55.300781-65.359375-100.019531 0-60.304688 48.886719-109.195312 109.191406-109.195312 60.304688 0 109.179688 48.890624 109.179688 109.195312zm0 0" fill="#f74866"/><path d="m317.234375 256c0 34.71875-21.203125 64.488281-51.359375 77.058594-6.015625 2.507812-12.402344 4.335937-19.046875 5.382812-4.253906.667969-8.609375 1.011719-13.039063 1.011719-2.46875 0-4.902343-.101563-7.316406-.324219-1.722656-.132812-3.4375-.34375-5.128906-.59375-1.890625-.28125-3.773438-.636718-5.621094-1.046875-5.351562-1.179687-10.523437-2.882812-15.433594-5.046875-29.414062-12.890625-49.957031-42.265625-49.957031-76.441406 0-46.09375 37.367188-83.457031 83.457031-83.457031 16.445313 0 31.773438 4.753906 44.699219 12.964843 6.488281 4.128907 12.382813 9.132813 17.480469 14.839844 13.230469 14.773438 21.265625 34.273438 21.265625 55.652344zm0 0" fill="#79bbe8"/><path d="m233.777344 392.117188c-7.5 0-13.582032 6.082031-13.582032 13.585937v92.714844c0 7.5 6.082032 13.582031 13.582032 13.582031 7.503906 0 13.585937-6.082031 13.585937-13.582031v-92.714844c0-7.503906-6.082031-13.585937-13.585937-13.585937zm0 0" fill="#f74866"/><path d="m246.828125 314.210938v24.230468c-4.253906.667969-8.609375 1.011719-13.039063 1.011719-4.234374 0-8.382812-.3125-12.445312-.917969-1.890625-.28125-3.773438-.636718-5.621094-1.046875v-23.300781l10.75.011719zm0 0" fill="#f9c2af"/><path d="m246.828125 314.210938v18.261718c-4.871094 1.640625-10.105469 2.53125-15.527344 2.53125-1.628906 0-3.238281-.09375-4.828125-.25v4.375c-1.722656-.132812-3.4375-.34375-5.128906-.59375-1.890625-.28125-3.773438-.636718-5.621094-1.046875v-23.300781l10.75.011719zm0 0" fill="#ea9e8f"/><path d="m182.464844 285.820312c-8.101563 0-14.667969-5.878906-14.667969-13.128906s6.566406-13.128906 14.667969-13.128906h97.664062c8.101563 0 14.667969 5.878906 14.667969 13.128906s-6.566406 13.128906-14.667969 13.128906" fill="#ea9e8f"/><path d="m280.132812 230.828125v48.835937c0 26.96875-21.863281 48.832032-48.835937 48.832032-13.484375 0-25.695313-5.46875-34.53125-14.304688-8.835937-8.835937-14.300781-21.046875-14.300781-34.527344v-48.835937zm0 0" fill="#f9c2af"/><path d="m230.949219 328.492188c-13.347657-.089844-25.417969-5.535157-34.183594-14.296876-8.835937-8.84375-14.300781-21.046874-14.300781-34.53125v-48.835937h21.984375v48.835937c0 13.484376 3.003906 25.691407 7.863281 34.53125 4.785156 8.699219 11.363281 14.128907 18.636719 14.296876zm0 0" fill="#ea9e8f"/><path d="m248.667969 279.128906c-1.789063 0-3.238281-1.449218-3.238281-3.238281v-6.785156c0-1.789063 1.449218-3.238281 3.238281-3.238281 1.789062 0 3.242187 1.449218 3.242187 3.238281v6.785156c0 1.789063-1.453125 3.238281-3.242187 3.238281zm0 0" fill="#293544"/><path d="m213.925781 279.128906c-1.789062 0-3.238281-1.449218-3.238281-3.238281v-6.785156c0-1.789063 1.449219-3.238281 3.238281-3.238281 1.789063 0 3.238281 1.449218 3.238281 3.238281v6.785156c0 1.789063-1.449218 3.238281-3.238281 3.238281zm0 0" fill="#293544"/><path d="m280.132812 230.828125v12.238281c-3.347656 2.394532-7.351562 4.496094-12.105468 6.210938-17.695313 6.375-34.824219 4.230468-46.9375.851562 0 0-.007813 0-.007813-.003906-10.554687-2.9375-17.296875-6.816406-17.296875-6.816406s-4.453125 21.433594-21.320312 21.433594v-33.917969h97.667968zm0 0" fill="#ea9e8f"/><path d="m268.027344 244.097656c-17.699219 6.375-34.824219 4.230469-46.945313.855469 0 0 0 0 0-.007813-10.554687-2.9375-17.292969-6.816406-17.292969-6.816406s-4.460937 21.433594-21.328124 21.433594c0 0-11.222657-19.855469-10.867188-38.210938.179688-9.53125 8.035156-16.65625 16.960938-16.65625 1.671874 0 3.375.25 5.066406.78125 4.785156-12.839843 17.417968-20.960937 31.085937-20.132812 2.132813.132812 4.273438.300781 6.425781.5.410157.03125.828126.074219 1.234376.105469.042968.011719.09375.011719.136718.011719 16.457032 1.542968 33.070313 4.175781 45.984375-.453126 6.488281 4.128907 12.382813 9.132813 17.480469 14.839844 1.023438 15.570313-3.351562 34.890625-27.941406 43.75zm0 0" fill="#515f75"/><path d="m224.707031 185.347656c2.132813.128906 4.273438.300782 6.425781.496094-19.695312-.832031-35.339843 42.535156-10.050781 59.101562-10.550781-2.941406-17.296875-6.816406-17.296875-6.816406s-4.453125 21.429688-21.320312 21.429688c0 0-11.222656-19.847656-10.871094-38.214844.183594-9.523438 8.035156-16.644531 16.960938-16.644531 1.667968 0 3.375.246093 5.070312.773437 4.78125-12.835937 17.410156-20.957031 31.082031-20.125zm0 0" fill="#3b485b"/><path d="m232.507812 185.96875c-.046874-.007812-.089843-.011719-.136718-.015625.042968.003906.085937.007813.128906.011719zm0 0" fill="#f4af9d"/><path d="m231.296875 305.082031c-5.167969 0-10.335937-1.96875-14.269531-5.902343-1.265625-1.265626-1.265625-3.316407 0-4.582032s3.316406-1.265625 4.578125 0c5.34375 5.34375 14.039062 5.34375 19.382812 0 1.265625-1.261718 3.316407-1.261718 4.578125 0 1.265625 1.265625 1.265625 3.316406 0 4.582032-3.933594 3.933593-9.101562 5.902343-14.269531 5.902343zm0 0" fill="#e06e86"/></svg>